<svg xmlns="http://www.w3.org/2000/svg" viewBox="0 0 502 502"><defs><linearGradient id="a"><stop offset="0" stop-color="#699ad7"/><stop offset=".2" stop-color="#7eb1dd"/><stop offset="1" stop-color="#7ebae4"/></linearGradient><linearGradient id="b"><stop offset="0" stop-color="#415e9a"/><stop offset=".2" stop-color="#4a6baf"/><stop offset="1" stop-color="#5277c3"/></linearGradient><linearGradient id="c" x1="200.6" x2="290.1" y1="351.4" y2="506.2" gradientTransform="translate(71 -1055)" gradientUnits="userSpaceOnUse" href="#a"/><linearGradient id="e" x1="-584.2" x2="-496.3" y1="782.3" y2="937.7" gradientTransform="translate(865 -1491)" gradientUnits="userSpaceOnUse" href="#b"/></defs><g transform="translate(-156 966)"><path id="d" fill="url(#c)" fill-opacity="1" fill-rule="evenodd" stroke="none" stroke-dasharray="none" stroke-linecap="butt" stroke-linejoin="round" stroke-miterlimit="4" stroke-opacity="1" stroke-width="3" d="m310-710 122 211-56 1-33-57-33 57-28-1-14-24 47-81-34-58z" opacity="1"/><use width="100%" height="100%" href="#d" transform="rotate(60 407 -716)"/><use width="100%" height="100%" href="#d" transform="rotate(-60 407 -716)"/><use width="100%" height="100%" href="#d" transform="rotate(180 407 -716)"/><path id="f" fill="url(#e)" fill-opacity="1" fill-rule="evenodd" stroke="none" stroke-dasharray="none" stroke-dashoffset="0" stroke-linecap="butt" stroke-linejoin="round" stroke-miterlimit="4" stroke-opacity="1" stroke-width="3" d="m310-710 122 211-56 1-33-57-33 57-28-1-14-24 47-81-34-58z" clip-rule="nonzero" color="#000" color-interpolation="sRGB" color-interpolation-filters="linearRGB" color-rendering="auto" display="inline" image-rendering="auto" opacity="1" overflow="visible" shape-rendering="auto" style="isolation:auto;mix-blend-mode:normal;solid-color:#000;solid-opacity:1" text-rendering="auto" visibility="visible"/><use width="100%" height="100%" href="#f" transform="rotate(120 407 -716)"/><use width="100%" height="100%" href="#f" transform="rotate(-120 407 -716)"/></g></svg>