<svg xmlns="http://www.w3.org/2000/svg" viewBox="0 0 400 340" shape-rendering="crispEdges">
<!-- shadow -->
<polygon fill="#333" points="260,120 380,120 380,140 340,140 320,140 400,140 400,180 320,180 300,180 380,180 380,200 300,200 280,200 360,200 360,220 280,220 260,220 320,220 320,240 260,240"/>
<!-- rind dark -->
<rect width="20" height="100" x="320" y="40" fill="#77aa64"/>
<rect width="100" height="20" x="120" y="240" fill="#77aa64"/>
<!-- rind light -->
<polygon fill="#96c15d" points="40,180 300,180 300,0 320,0 320,100 340,100 340,120 320,120 320,180 300,180 300,200 240,200 240,240 220,240 160,240 160,260 140,260 140,240 80,240 80,200 40,200"/>
<!-- flesh lighter -->
<polygon fill="#c97c78" points="60,180 120,180 120,140 220,140 220,60 240,60 240,200 60,200"/>
<!-- flesh light -->
<polygon fill="#cd655c" points="80,180 80,200 300,200 300,20 280,20 280,40 260,40 260,60 240,60 240,80 200,80 200,100 180,100 180,120 160,120 160,140 140,140 140,160 100,160 100,180"/>
<!-- rind dark -->
<polygon fill="#77aa64" points="60,200 60,220 100,220 100,240 220,240 220,220 240,220 240,240 260,240 260,220 280,220 280,180 300,180 300,200"/>
<!-- flesh main -->
<polygon fill="#c25145" points="80,200 80,220 260,220 260,180 300,180 300,100 320,100 320,40 280,40 280,60 260,60 260,80 220,80 220,100 200,100 200,120 180,120 180,140 160,140 160,160 120,160 120,180 100,180 100,200"/>
<!-- flesh dark -->
<polygon fill="#b3483d" points="120,220 120,240 220,240 220,200 280,200 280,140 300,140 300,100 320,100 320,160 300,160 300,180 260,180 260,220"/>
<!-- juice light -->
<polygon fill="#c25145" points="0,280 160,280 160,340 100,340 100,320 40,320 40,300 0,300"/>
<!-- juice dark -->
<polygon fill="#a94137" points="20,260 20,280 180,280 180,320 140,320 140,260"/>
<!-- juice darker -->
<polygon fill="#9b382d" points="100,240 120,240 120,280 180,280 180,320 200,320 200,300 140,300 140,260 100,260"/>
<!-- juice main -->
<polygon fill="#b33828" points="100,260 120,260 120,280 140,280 140,300 160,300 160,320 100,320 100,300 40,300 40,280 100,280"/>
<!-- seeds -->
<rect width="20" height="20" x="120" y="180"/>
<rect width="20" height="20" x="180" y="200"/>
<rect width="20" height="20" x="180" y="140"/>
<rect width="20" height="20" x="240" y="160"/>
<rect width="20" height="20" x="240" y="100"/>
</svg>
