<svg xmlns="http://www.w3.org/2000/svg" shape-rendering="crispEdges" viewBox="0 0 20 17">
<!-- shadow -->
<path fill="#333" d="M13 6h6v1h-3 4v2h-5 4v1h-5 4v1h-5 3v1h-3z"/>
<!-- rind dark -->
<path fill="#77aa64" d="M16 2h1v5h-1zM6 12h5v1H6z"/>
<!-- rind light -->
<path fill="#96c15d" d="M2 9h13V0h1v5h1v1h-1v3h-1v1h-3v2H8v1H7v-1H4v-2H2z"/>
<!-- flesh lighter -->
<path fill="#c97c78" d="M3 9h3V7h5V3h1v7H3z"/>
<!-- flesh light -->
<path fill="#cd655c" d="M4 9v1h11V1h-1v1h-1v1h-1v1h-2v1H9v1H8v1H7v1H5v1z"/>
<!-- rind dark -->
<path fill="#77aa64" d="M3 10v1h2v1h6v-1h1v1h1v-1h1V9h1v1z"/>
<!-- flesh main -->
<path fill="#c25145" d="M4 10v1h9V9h2V5h1V2h-2v1h-1v1h-2v1h-1v1H9v1H8v1H6v1H5v1z"/>
<!-- flesh dark -->
<path fill="#b3483d" d="M6 11v1h5v-2h3V7h1V5h1v3h-1v1h-2v2z"/>
<!-- juice light -->
<path fill="#c25145" d="M0 14h8v3H5v-1H2v-1H0z"/>
<!-- juice dark -->
<path fill="#a94137" d="M1 13v1h8v2H7v-3z"/>
<!-- juice darkest -->
<path fill="#9b382d" d="M5 12h1v2h3v2h1v-1H7v-2H5z"/>
<!-- juice main -->
<path fill="#b33828" d="M5 13h1v1h1v1h1v1H5v-1H2v-1h3z"/>
<!-- seeds -->
<path d="M6 9h1v1H6zm3 1h1v1H9zm0-3h1v1H9zm3 1h1v1h-1zm0-3h1v1h-1z"/>
</svg>
